# Blender v2.79 (sub 0) OBJ File: ''
# www.blender.org
mtllib pique.mtl
o Cube
v 1.000000 -1.000000 -1.000000
v 1.000000 -1.000000 1.000000
v -1.000000 -1.000000 1.000000
v -1.000000 -1.000000 -1.000000
v 0.999999 1.000000 -0.047274
v -1.000000 1.000000 -0.047275
vn 0.0000 -1.0000 0.0000
vn -1.0000 -0.0000 -0.0000
vn 0.0000 0.4301 -0.9028
vn -0.0000 0.4639 0.8859
vn 1.0000 0.0000 0.0000
usemtl Material
s off
f 1//1 2//1 3//1 4//1
f 4//2 3//2 6//2
f 4//3 6//3 5//3 1//3
f 2//4 5//4 6//4 3//4
f 2//5 1//5 5//5
